:FULLY-SPECIFIED
:FORCE-ALL-JOINTS-BE-3DOF
:DEGREES
1835
root 6.36116 13.9641 27.821 1048.92 60.1858 329.424
lfemur -48.2791 17.2477 1.32412
ltibia 53.4819 0 0
lfoot 5.46836 -2.9995 0
ltoes -8.29673 0 0
rfemur -0.802909 -10.1324 19.4598
rtibia 53.1715 0 0
rfoot -28.3195 -27.1349 0
rtoes -23.7212 0 0
lowerback 14.0974 3.20382 6.30149
upperback -0.239065 5.69898 3.77436
thorax -7.99993 2.6248 -0.68757
lowerneck -4.89097 7.12093 0.591072
upperneck 7.60088 9.51794 0.740981
head 3.60579 4.78536 0.591546
lclavicle -2.40312e-14 -7.77633e-15 0
lhumerus 54.1478 11.4215 104.642
lradius 14.8924 0 0
lwrist -72.0294 0 0
lhand -34.7331 43.1234 0
lfingers 7.12502 0 0
lthumb -7.8858 72.8824 0
rclavicle -2.40312e-14 -7.77633e-15 0
rhumerus -62.7424 8.02955 -78.5777
rradius 118.367 0 0
rwrist -152.364 0 0
rhand -67.1926 -254.146 0
rfingers 7.12502 0 0
rthumb -38.8536 216.777 0
1836
root 6.43034 13.951 27.8257 1049.01 59.8029 329.261
lfemur -48.6486 17.9903 1.33252
ltibia 54.7088 0 0
lfoot 4.51791 -3.26217 0
ltoes -9.48439 0 0
rfemur -0.582953 -9.89665 19.3862
rtibia 52.7754 0 0
rfoot -28.0669 -27.3356 0
rtoes -24.0704 0 0
lowerback 14.095 3.33199 6.27907
upperback -0.26884 5.87346 3.83235
thorax -8.03227 2.71034 -0.648572
lowerneck -4.73876 7.38698 0.825657
upperneck 7.5174 9.87964 0.499199
head 3.59273 4.96275 0.486043
lclavicle -2.48846e-14 -1.03599e-14 0
lhumerus 54.0932 11.5507 104.94
lradius 15.0232 0 0
lwrist -72.5905 0 0
lhand -34.4077 42.9134 0
lfingers 7.12502 0 0
lthumb -7.57178 72.6826 0
rclavicle -2.48846e-14 -1.03599e-14 0
rhumerus -63.0384 8.2248 -78.7575
rradius 118.469 0 0
rwrist -150.167 0 0
rhand -66.3388 -263.188 0
rfingers 7.12502 0 0
rthumb -38.0481 219.032 0
1837
root 6.49953 13.9378 27.8304 1049.24 59.3725 329.222
lfemur -49.0662 18.804 1.34499
ltibia 56.0125 0 0
lfoot 3.50324 -3.56825 0
ltoes -10.7515 0 0
rfemur -0.311 -9.61147 19.2964
rtibia 52.3429 0 0
rfoot -27.8088 -27.5572 0
rtoes -24.4653 0 0
lowerback 14.0919 3.4676 6.26277
upperback -0.300074 6.05984 3.89865
thorax -8.06554 2.80154 -0.606365
lowerneck -4.57586 7.69123 1.09156
upperneck 7.43125 10.2931 0.222736
head 3.57946 5.16549 0.3664
lclavicle -2.57575e-14 -1.3163e-14 0
lhumerus 54.1733 11.7257 105.26
lradius 15.0652 0 0
lwrist -73.2972 0 0
lhand -34.0785 42.7009 0
lfingers 7.12502 0 0
lthumb -7.25412 72.4813 0
rclavicle -2.57575e-14 -1.3163e-14 0
rhumerus -63.452 8.44258 -78.9894
rradius 118.666 0 0
rwrist -147.966 0 0
rhand -65.4703 -273.231 0
rfingers 7.12502 0 0
rthumb -37.2295 221.783 0
1838
root 6.56872 13.9247 27.835 1049.62 58.8918 329.318
lfemur -49.5347 19.6922 1.36185
ltibia 57.3953 0 0
lfoot 2.42224 -3.92059 0
ltoes -12.1006 0 0
rfemur 0.0167129 -9.27339 19.1892
rtibia 51.8721 0 0
rfoot -27.5456 -27.8006 0
rtoes -24.9088 0 0
lowerback 14.0881 3.61082 6.2532
upperback -0.332788 6.25852 3.9738
thorax -8.09969 2.89858 -0.56081
lowerneck -4.40192 8.03604 1.39068
upperneck 7.34251 10.7615 -0.0905633
head 3.56599 5.39514 0.231765
lclavicle -2.66484e-14 -1.61952e-14 0
lhumerus 54.4003 11.9498 105.604
lradius 15.0098 0 0
lwrist -74.1601 0 0
lhand -33.7465 42.4865 0
lfingers 7.12502 0 0
lthumb -6.93367 72.2791 0
rclavicle -2.66484e-14 -1.61952e-14 0
rhumerus -63.9925 8.68415 -79.2772
rradius 118.968 0 0
rwrist -145.767 0 0
rhand -64.589 -284.327 0
rfingers 7.12502 0 0
rthumb -36.3997 225.067 0
1839
root 6.63791 13.9115 27.8397 1050.18 58.3582 329.559
lfemur -50.0571 20.6586 1.38344
ltibia 58.8594 0 0
lfoot 1.27278 -4.32204 0
ltoes -13.5344 0 0
rfemur 0.403951 -8.87894 19.0636
rtibia 51.3613 0 0
rfoot -27.2779 -28.0671 0
rtoes -25.4035 0 0
lowerback 14.0836 3.76182 6.251
upperback -0.366997 6.46989 4.05829
thorax -8.13468 3.00165 -0.511769
lowerneck -4.21656 8.42379 1.72489
upperneck 7.25125 11.288 -0.442856
head 3.55236 5.65328 0.0812828
lclavicle -2.75558e-14 -1.94664e-14 0
lhumerus 54.7863 12.2267 105.971
lradius 14.849 0 0
lwrist -75.19 0 0
lhand -33.4125 42.2707 0
lfingers 7.12502 0 0
lthumb -6.61129 72.0767 0
rclavicle -2.75558e-14 -1.94664e-14 0
rhumerus -64.6692 8.95076 -79.6249
rradius 119.382 0 0
rwrist -143.58 0 0
rhand -63.6967 -296.533 0
rfingers 7.12502 0 0
rthumb -35.5606 228.919 0
1840
root 6.7071 13.8984 27.8444 1050.91 57.7687 329.958
lfemur -50.6361 21.7066 1.41007
ltibia 60.4069 0 0
lfoot 0.0527428 -4.77544 0
ltoes -15.0554 0 0
rfemur 0.854478 -8.42463 18.9184
rtibia 50.8088 0 0
rfoot -27.006 -28.3576 0
rtoes -25.9523 0 0
lowerback 14.0781 3.9208 6.25678
upperback -0.40272 6.69435 4.15266
thorax -8.17049 3.11093 -0.459104
lowerneck -4.0194 8.85685 2.09608
upperneck 7.15755 11.876 -0.836297
head 3.5386 5.94148 -0.0858992
lclavicle -2.84782e-14 -2.29861e-14 0
lhumerus 55.3434 12.5599 106.364
lradius 14.5742 0 0
lwrist -76.3977 0 0
lhand -33.0773 42.0541 0
lfingers 7.12502 0 0
lthumb -6.28782 71.8746 0
rclavicle -2.84782e-14 -2.29861e-14 0
rhumerus -65.4913 9.24367 -80.0364
rradius 119.916 0 0
rwrist -141.412 0 0
rhand -62.7953 -309.902 0
rfingers 7.12502 0 0
rthumb -34.714 233.373 0
